<?xml version="1.0" encoding="iso-8859-1"?>
<!-- Generator: Adobe Illustrator 19.0.0, SVG Export Plug-In . SVG Version: 6.00 Build 0)  -->
<svg version="1.1" id="Capa_1" xmlns="http://www.w3.org/2000/svg" xmlns:xlink="http://www.w3.org/1999/xlink" x="0px" y="0px"
	 viewBox="0 0 512 512" style="enable-background:new 0 0 512 512;" xml:space="preserve">
<g>
	<g>
		<path d="M500.644,245.725l-16.502-42.805c-8.538-22.125-27.442-38.414-50.567-43.575l-171.927-38.449l-40.344-45.471
			c-0.932-1.05-2.137-1.823-3.481-2.23l-49.873-15.123c-2.627-0.798-5.48-0.115-7.464,1.783c-1.984,1.899-2.789,4.719-2.11,7.379
			l8.297,32.422l-28.39-6.349c-18.701-4.182-32.98-19.074-36.378-37.936l-6.849-38.029c-0.506-2.81-2.545-5.101-5.277-5.929
			l-35.615-10.8c-2.175-0.659-4.528-0.312-6.42,0.947c-1.891,1.258-3.121,3.296-3.352,5.556l-9.611,93.883
			c-1.109,10.795,1.882,21.572,8.127,30.233L8.243,156.298c-2.807,2.03-3.945,5.758-2.558,9.106c0.89,2.149,2.793,3.721,5.02,4.396
			l29.86,9.055c0.719,0.218,1.463,0.328,2.206,0.328c0.78,0,1.559-0.12,2.311-0.36l45.233-14.43
			c7.719,4.392,15.399,8.702,22.928,12.864c3.687,2.038,8.323,0.687,10.346-3.008c2.01-3.673,0.676-8.277-2.989-10.303
			c-3.48-1.923-6.993-3.879-10.525-5.858l12.243-3.906c2.806-0.895,5.02-3.227,5.474-6.139c0.572-3.67-1.551-7.138-4.953-8.353
			l-57.554-20.564c-2.359-0.844-4.983-0.469-7.014,0.999l-3.047,2.203c-4.085-5.665-6.041-12.715-5.315-19.777l8.672-84.705
			l22.329,6.772l6.023,33.45c4.486,24.901,23.338,44.56,48.027,50.082l295.292,66.038c18.154,4.051,32.993,16.839,39.695,34.206
			l2.396,6.215l-17.489-5.303c-3.984-1.209-8.391,0.809-9.718,4.755c-1.373,4.084,0.906,8.465,4.999,9.706l29.146,8.838
			l7.167,18.591c1.766,4.582,1.961,9.44,0.564,14.048c-2.863,9.441-11.729,15.808-21.547,15.511
			c-38.273-1.222-76.069-6.778-112.343-16.515c-13.291-3.562-26.612-7.597-40.271-12.191l12.783-3.348
			c2.938-0.77,5.316-3.099,5.842-6.09c0.657-3.735-1.497-7.302-4.979-8.518l-135.055-47.177c-2.618-0.912-5.524-0.333-7.587,1.521
			l-6.295,5.65c-8.218-4.146-16.628-8.479-25.139-12.96c-3.702-1.949-8.284-0.538-10.251,3.154v0.001
			c-1.981,3.721-0.554,8.344,3.176,10.309c6.766,3.564,13.472,7.037,20.07,10.397l-67.07,60.211
			c-2.043,1.834-2.939,4.626-2.344,7.307s2.589,4.832,5.217,5.628l49.87,15.122c0.719,0.218,1.462,0.328,2.206,0.328
			c0.647,0,1.295-0.083,1.926-0.248l41.084-10.759v5.395c-12.393,3.549-21.258,15.537-19.926,29.325
			c1.289,13.341,12.25,23.962,25.623,24.863c16.111,1.086,29.567-11.714,29.567-27.597c0-12.615-8.491-23.276-20.056-26.59v-9.378
			l75.112-19.67c21.621,7.97,42.118,14.533,62.559,20.011c6.312,1.694,12.673,3.255,19.07,4.703l0.225,8.507
			c-12.608,3.703-21.512,16.155-19.632,30.307c1.652,12.434,11.778,22.325,24.243,23.718c16.665,1.861,30.829-11.188,30.829-27.485
			c0-12.677-8.576-23.384-20.23-26.639l-0.137-5.191c26.667,5.17,53.931,8.227,81.433,9.104c0.388,0.012,0.773,0.018,1.159,0.018
			c16.218-0.001,30.681-10.682,35.422-26.317C503.961,261.775,503.641,253.499,500.644,245.725z M63.94,134.795l32.602,11.649
			l-53.828,17.172l-13.13-3.981L63.94,134.795z M183.322,103.38l-6.867-26.836l34.895,10.582l24.93,28.098L183.322,103.38z
			 M216.364,314.557c0,6.867-5.586,12.454-12.453,12.454c-6.867,0-12.454-5.586-12.454-12.454c0-6.867,5.586-12.453,12.454-12.453
			C210.778,302.104,216.364,307.691,216.364,314.557z M153.449,278.076l-34.895-10.582l72.119-64.737l107.282,37.475
			L153.449,278.076z M388.712,318.683c0,6.867-5.586,12.454-12.454,12.454c-6.867,0-12.453-5.586-12.453-12.454
			c0-6.868,5.586-12.454,12.453-12.454C383.126,306.229,388.712,311.815,388.712,318.683z"/>
	</g>
</g>
<g>
	<g>
		<path d="M145.975,136.757c-2.639,2.523-3.048,6.67-1.05,9.705c1.707,2.591,4.97,3.87,7.988,3.193
			c3.234-0.726,5.669-3.557,5.909-6.861C159.317,135.979,150.905,132.043,145.975,136.757z"/>
	</g>
</g>
<g>
	<g>
		<path d="M177.956,142.396c-4.015-1.227-8.263,1.044-9.48,5.069c-1.217,4.015,1.044,8.263,5.069,9.48
			c0.73,0.223,1.48,0.335,2.21,0.335c3.255,0,6.276-2.119,7.269-5.404C184.242,147.86,181.981,143.612,177.956,142.396z"/>
	</g>
</g>
<g>
	<g>
		<path d="M202.461,149.826c-4.015-1.227-8.263,1.044-9.48,5.069c-1.217,4.015,1.054,8.263,5.069,9.48
			c0.73,0.224,1.48,0.324,2.21,0.324c3.265,0,6.276-2.109,7.269-5.394C208.757,155.281,206.486,151.043,202.461,149.826z"/>
	</g>
</g>
<g>
	<g>
		<path d="M275.986,172.112c-4.015-1.217-8.263,1.054-9.48,5.079c-1.227,4.015,1.044,8.263,5.069,9.48
			c0.73,0.223,1.47,0.324,2.21,0.324c3.254,0,6.276-2.109,7.269-5.394C282.272,177.577,280.001,173.339,275.986,172.112z"/>
	</g>
</g>
<g>
	<g>
		<path d="M349.511,194.406c-4.025-1.217-8.273,1.054-9.49,5.079c-1.217,4.015,1.054,8.263,5.069,9.48
			c0.74,0.224,1.48,0.324,2.21,0.324c3.265,0,6.286-2.109,7.28-5.394C355.797,199.87,353.526,195.633,349.511,194.406z"/>
	</g>
</g>
<g>
	<g>
		<path d="M324.996,186.975c-4.015-1.217-8.263,1.054-9.48,5.069c-1.217,4.025,1.054,8.273,5.069,9.49
			c0.74,0.223,1.48,0.324,2.21,0.324c3.265,0,6.276-2.109,7.269-5.394C331.292,192.44,329.021,188.202,324.996,186.975z"/>
	</g>
</g>
<g>
	<g>
		<path d="M374.016,201.837c-4.025-1.217-8.263,1.054-9.49,5.079c-1.217,4.015,1.054,8.263,5.079,9.48
			c0.73,0.223,1.47,0.324,2.2,0.324c3.265,0,6.286-2.109,7.28-5.394C380.302,207.302,378.031,203.064,374.016,201.837z"/>
	</g>
</g>
<g>
	<g>
		<path d="M226.976,157.259c-4.025-1.227-8.273,1.044-9.49,5.069c-1.217,4.015,1.054,8.263,5.069,9.48
			c0.74,0.222,1.48,0.324,2.21,0.324c3.265,0,6.276-2.109,7.279-5.394C233.262,162.713,230.991,158.476,226.976,157.259z"/>
	</g>
</g>
<g>
	<g>
		<path d="M300.491,179.544c-4.015-1.217-8.263,1.054-9.48,5.069c-1.217,4.025,1.044,8.273,5.069,9.49
			c0.73,0.223,1.48,0.324,2.21,0.324c3.265,0,6.276-2.109,7.269-5.394C306.777,185.008,304.506,180.77,300.491,179.544z"/>
	</g>
</g>
<g>
	<g>
		<path d="M251.481,164.68c-4.025-1.217-8.263,1.054-9.49,5.079c-1.217,4.015,1.054,8.263,5.079,9.48
			c0.73,0.222,1.47,0.324,2.2,0.324c3.265,0,6.286-2.109,7.28-5.394C257.767,170.145,255.496,165.907,251.481,164.68z"/>
	</g>
</g>
<g>
	<g>
		<path d="M391.045,211.072c-2.618,2.503-3.08,6.688-1.05,9.696c1.715,2.669,5.119,3.917,8.17,3.155
			c3.084-0.77,5.402-3.467,5.722-6.628C404.589,210.395,396.02,206.318,391.045,211.072z"/>
	</g>
</g>
<g>
	<g>
		<path d="M504.396,387.911H7.604c-4.199,0-7.604,3.405-7.604,7.604v25.597v57.399v25.597c0,4.199,3.405,7.604,7.604,7.604h496.792
			c4.199,0,7.604-3.405,7.604-7.604v-25.597v-57.399v-25.597C512,391.316,508.595,387.911,504.396,387.911z M496.792,470.907
			h-41.563c-4.199,0-7.604,3.405-7.604,7.604s3.405,7.604,7.604,7.604h41.563v10.389H15.208v-10.389h404.535
			c4.199,0,7.604-3.405,7.604-7.604s-3.405-7.604-7.604-7.604H15.208v-42.191h481.584V470.907z M496.792,413.508H15.208v-10.389
			h481.584V413.508z"/>
	</g>
</g>
<g>
</g>
<g>
</g>
<g>
</g>
<g>
</g>
<g>
</g>
<g>
</g>
<g>
</g>
<g>
</g>
<g>
</g>
<g>
</g>
<g>
</g>
<g>
</g>
<g>
</g>
<g>
</g>
<g>
</g>
</svg>
