<?xml version="1.0" encoding="iso-8859-1"?>
<!-- Generator: Adobe Illustrator 19.0.0, SVG Export Plug-In . SVG Version: 6.00 Build 0)  -->
<svg version="1.1" id="Capa_1" xmlns="http://www.w3.org/2000/svg" xmlns:xlink="http://www.w3.org/1999/xlink" x="0px" y="0px"
	 viewBox="0 0 496 496" style="enable-background:new 0 0 496 496;" xml:space="preserve">
<g>
	<g>
		<path d="M290.192,128C303.528,116.264,312,99.12,312,80V64c0-35.288-28.712-64-64-64c-35.288,0-64,28.712-64,64v16
			c0,19.12,8.472,36.264,21.808,48H104v256h88v112h48h8h56V384h88V128H290.192z M200,80V64c0-26.472,21.528-48,48-48
			s48,21.528,48,48v16c0,26.472-21.528,48-48,48S200,106.472,200,80z M120,368V144h120v16h-72c-13.232,0-24,10.768-24,24v48h16v-48
			c0-4.416,3.592-8,8-8h72v23.72c-24.72-1.344-39.24-8.504-40.976-11.544l-14.048,7.656c5.904,10.824,27.976,18.648,55.024,19.96
			v15.992c-28-1.096-44.584-7.672-50.344-13.432l-11.312,11.312c10.672,10.672,32.944,17.112,61.656,18.136v15.968
			c-25.656-1.176-43.072-7.776-51.056-14.048l-9.88,12.576c12.8,10.056,35.216,16.384,60.944,17.48v15.92
			c-21.32-1.44-37.288-8.296-42.344-13.352l-11.312,11.312c9.664,9.672,31,16.68,53.656,18.056v11.344l-17.688-8.84
			c-2.904-1.448-6.144-2.216-9.376-2.216C201.392,312,192,321.4,192,332.944v1.728c0,9.024,5.752,17.008,14.32,19.864
			c5.792,1.928,9.68,7.328,9.68,13.432V368H120z M240,480h-32v-96h32V480z M232,368v-0.032c0-13-8.288-24.496-20.616-28.6
			c-2.024-0.68-3.384-2.56-3.384-4.696v-1.728c0-3.496,4.032-6,7.16-4.424L248,344.944l32.84-16.424
			c3.136-1.584,7.16,0.936,7.16,4.424v1.728c0,2.136-1.36,4.016-3.384,4.696c-12.328,4.112-20.616,15.6-20.616,28.6V368H232z
			 M288,480h-32v-96h32V480z M376.008,368H376h-96v-0.032c0-6.104,3.888-11.504,9.68-13.432c8.56-2.856,14.32-10.84,14.32-19.864
			v-1.728C304,321.4,294.608,312,283.056,312c-3.232,0-6.472,0.768-9.368,2.208L256,323.056v-11.352
			c23.808-1.424,46.248-8.928,54.192-18.632l-12.384-10.144c-3.432,4.2-19.776,11.296-41.808,12.76v-15.92
			c25.728-1.104,48.144-7.424,60.944-17.48l-9.88-12.576c-7.984,6.272-25.4,12.872-51.056,14.048v-15.968
			c28.712-1.024,50.984-7.456,61.656-18.136l-11.312-11.312c-5.76,5.76-22.344,12.336-50.344,13.432v-15.992
			c27.048-1.304,49.12-9.136,55.024-19.96l-14.048-7.664c-1.736,3.048-16.264,10.208-40.976,11.552V176h72c4.408,0,8,3.584,8,8v48
			h16v-48c0-13.232-10.768-24-24-24h-72v-16h120V368z"/>
	</g>
</g>
<g>
	<g>
		<rect x="336" y="280" width="16" height="48"/>
	</g>
</g>
<g>
	<g>
		<rect x="336" y="248" width="16" height="16"/>
	</g>
</g>
<g>
	<g>
		<rect x="144" y="280" width="16" height="48"/>
	</g>
</g>
<g>
	<g>
		<rect x="144" y="248" width="16" height="16"/>
	</g>
</g>
<g>
</g>
<g>
</g>
<g>
</g>
<g>
</g>
<g>
</g>
<g>
</g>
<g>
</g>
<g>
</g>
<g>
</g>
<g>
</g>
<g>
</g>
<g>
</g>
<g>
</g>
<g>
</g>
<g>
</g>
</svg>
