<?xml version="1.0" encoding="iso-8859-1"?>
<!-- Generator: Adobe Illustrator 19.0.0, SVG Export Plug-In . SVG Version: 6.00 Build 0)  -->
<svg version="1.1" id="Capa_1" xmlns="http://www.w3.org/2000/svg" xmlns:xlink="http://www.w3.org/1999/xlink" x="0px" y="0px"
	 viewBox="0 0 512 512" style="enable-background:new 0 0 512 512;" xml:space="preserve">
<g>
	<g>
		<path d="M432.252,6.738c-6.238-5.338-14.471-7.667-22.58-6.4L97.465,49.21c-1.14,0.178-2.207,0.552-3.177,1.072
			c-14.023,3.863-24.356,16.72-24.356,31.954v396.617c0,18.276,14.869,33.146,33.146,33.146h262.295
			c15.471,0,28.057-12.586,28.057-28.057v-20.83l24.991-3.978c13.701-2.182,23.646-13.834,23.646-27.708V28.057
			C442.068,19.847,438.491,12.076,432.252,6.738z M373.43,446.045v20.252v17.646c0,4.442-3.614,8.057-8.057,8.057H211.959H103.078
			c-7.249,0-13.146-5.897-13.146-13.146V82.237c0-7.249,5.897-13.146,13.146-13.146h5.933h256.362c4.442,0,8.057,3.614,8.057,8.058
			V446.045z M422.069,431.428L422.069,431.428c-0.001,3.983-2.857,7.33-6.792,7.956l-21.847,3.478V77.148
			c0-15.471-12.586-28.058-28.057-28.058H227.556l185.209-28.992c3.187-0.504,5.431,0.937,6.484,1.838
			c1.053,0.9,2.819,2.894,2.819,6.121V431.428z"/>
	</g>
</g>
<g>
	<g>
		<path d="M336.761,158.063c-0.488-1.279-1.008-2.573-1.547-3.845c-2.155-5.085-8.024-7.459-13.11-5.305
			c-5.085,2.155-7.459,8.024-5.304,13.109c0.444,1.048,0.872,2.111,1.272,3.162c11.896,31.221,5.998,66.547-15.391,92.191
			l-70.999,85.126l-71-85.126c-30.842-36.979-28.424-90.541,5.625-124.59c26.205-26.205,65.371-34.24,99.784-20.465
			c5.127,2.052,10.947-0.44,13-5.568c2.052-5.127-0.441-10.947-5.568-13c-41.851-16.749-89.486-6.98-121.357,24.891
			c-19.896,19.896-31.553,46.335-32.822,74.444c-1.27,28.109,7.957,55.49,25.979,77.1l78.679,94.334
			c1.9,2.278,4.713,3.595,7.68,3.595c2.967,0,5.779-1.317,7.68-3.595l78.679-94.333
			C344.054,238.996,351.228,196.033,336.761,158.063z"/>
	</g>
</g>
<g>
	<g>
		<path d="M295.072,389.704h-126.78c-5.523,0-10,4.478-10,10c0,5.522,4.477,10,10,10h126.78c5.523,0,10-4.478,10-10
			C305.072,394.182,300.595,389.704,295.072,389.704z"/>
	</g>
</g>
<g>
	<g>
		<path d="M346.881,445.379c-0.12-0.639-0.32-1.27-0.57-1.869c-0.25-0.61-0.56-1.19-0.92-1.729c-0.36-0.551-0.78-1.061-1.24-1.521
			c-0.46-0.46-0.97-0.88-1.52-1.24c-0.54-0.359-1.12-0.67-1.73-0.92c-0.6-0.25-1.23-0.45-1.87-0.569c-1.29-0.261-2.61-0.261-3.91,0
			c-0.63,0.119-1.26,0.319-1.87,0.569c-0.6,0.25-1.18,0.561-1.72,0.92c-0.55,0.36-1.06,0.78-1.52,1.24
			c-0.46,0.46-0.88,0.97-1.25,1.521c-0.36,0.539-0.67,1.119-0.92,1.729c-0.25,0.6-0.44,1.23-0.57,1.87s-0.19,1.3-0.19,1.95
			c0,0.649,0.06,1.31,0.19,1.95s0.32,1.27,0.57,1.88c0.25,0.6,0.56,1.18,0.92,1.72c0.057,0.085,0.124,0.163,0.184,0.246
			c0.326,0.454,0.678,0.885,1.066,1.273c0.46,0.46,0.97,0.881,1.52,1.25c0.54,0.36,1.12,0.66,1.72,0.91
			c0.61,0.25,1.24,0.45,1.87,0.58c0.65,0.13,1.31,0.19,1.96,0.19c0.65,0,1.31-0.061,1.95-0.19c0.64-0.129,1.27-0.33,1.87-0.58
			c0.61-0.25,1.19-0.55,1.73-0.91c0.55-0.369,1.06-0.79,1.52-1.25c0.46-0.46,0.88-0.97,1.24-1.52c0.36-0.54,0.67-1.12,0.92-1.72
			c0.114-0.278,0.212-0.561,0.301-0.846c0.106-0.341,0.199-0.685,0.269-1.034c0.13-0.641,0.2-1.301,0.2-1.95
			C347.081,446.679,347.011,446.018,346.881,445.379z"/>
	</g>
</g>
<g>
	<g>
		<path d="M296.832,437.331H126.285c-5.523,0-10,4.478-10,10s4.477,10,10,10h170.547c5.523,0,10-4.478,10-10
			S302.355,437.331,296.832,437.331z"/>
	</g>
</g>
<g>
	<g>
		<path d="M305.412,201.683c0-0.056-0.003-0.112-0.004-0.167c-0.107-40.472-32.988-73.378-73.452-73.528
			c-0.072-0.003-0.144-0.006-0.217-0.006c-0.019,0-0.038-0.001-0.058-0.001c-40.655,0-73.732,33.075-73.732,73.731
			c0,0.032,0.002,0.064,0.002,0.096c0.001,0.078,0.003,0.155,0.006,0.232c0.179,40.504,33.178,73.404,73.724,73.404
			c40.655,0,73.732-33.076,73.732-73.732C305.413,201.702,305.412,201.692,305.412,201.683z M178.397,194.904
			c2.705-21.284,17.9-38.715,37.992-44.693c-5.358,16.763-8.024,34.207-7.996,51.647
			C198.23,200.608,188.187,198.274,178.397,194.904z M180.008,216.4c9.727,2.808,19.642,4.717,29.643,5.721
			c1.286,10.524,3.559,20.948,6.83,31.119C198.888,248.041,185.037,234.065,180.008,216.4z M238.318,255.019
			c-4.015-10.41-6.81-21.184-8.388-32.104c10.588-0.23,21.196-1.459,31.696-3.716l22.256-4.781
			C278.668,235.838,260.587,252.262,238.318,255.019z M257.425,199.645c-9.616,2.066-19.33,3.14-29.023,3.277
			c-0.167-18.505,3.106-37.032,9.82-54.529c23.935,2.92,43.061,21.626,46.599,45.366L257.425,199.645z"/>
	</g>
</g>
<g>
	<g>
		<path d="M313.931,123.757c-0.13-0.63-0.32-1.26-0.57-1.87c-0.25-0.6-0.56-1.18-0.92-1.72c-0.36-0.55-0.78-1.061-1.24-1.521
			c-0.46-0.46-0.98-0.88-1.52-1.25c-0.55-0.359-1.13-0.67-1.73-0.92c-0.6-0.25-1.23-0.439-1.87-0.569c-1.29-0.261-2.62-0.261-3.91,0
			c-0.64,0.13-1.27,0.319-1.87,0.569c-0.6,0.25-1.18,0.561-1.73,0.92c-0.54,0.37-1.05,0.79-1.52,1.25
			c-0.46,0.46-0.87,0.971-1.24,1.521c-0.36,0.54-0.67,1.12-0.92,1.72c-0.25,0.61-0.44,1.24-0.57,1.87c-0.13,0.65-0.19,1.3-0.19,1.96
			c0,0.65,0.06,1.311,0.19,1.95c0.13,0.639,0.32,1.27,0.57,1.87c0.25,0.609,0.56,1.189,0.92,1.729c0.37,0.55,0.78,1.061,1.24,1.521
			c0.47,0.46,0.98,0.88,1.52,1.24c0.55,0.359,1.13,0.67,1.73,0.92c0.6,0.25,1.23,0.439,1.87,0.569c0.65,0.13,1.31,0.2,1.96,0.2
			c0.65,0,1.31-0.07,1.95-0.2c0.64-0.13,1.27-0.319,1.87-0.569c0.6-0.25,1.18-0.561,1.73-0.92c0.54-0.36,1.06-0.78,1.52-1.24
			c0.46-0.46,0.88-0.971,1.24-1.521c0.36-0.54,0.67-1.12,0.92-1.729c0.25-0.601,0.44-1.23,0.57-1.87s0.2-1.3,0.2-1.95
			C314.131,125.057,314.061,124.407,313.931,123.757z"/>
	</g>
</g>
<g>
</g>
<g>
</g>
<g>
</g>
<g>
</g>
<g>
</g>
<g>
</g>
<g>
</g>
<g>
</g>
<g>
</g>
<g>
</g>
<g>
</g>
<g>
</g>
<g>
</g>
<g>
</g>
<g>
</g>
</svg>
